<?xml version="1.0" encoding="UTF-8"?>
<svg width="292px" height="340px" viewBox="0 0 292 340" version="1.1" xmlns="http://www.w3.org/2000/svg" xmlns:xlink="http://www.w3.org/1999/xlink">
    <!-- Generator: Sketch 61 (89581) - https://sketch.com -->
    <title>noun_success_1354985</title>
    <desc>Created with Sketch.</desc>
    <g id="Page-1" stroke="none" stroke-width="1" fill="none" fill-rule="evenodd">
        <g id="Artboard" transform="translate(-25.000000, -1.000000)" fill="#C5C5C5" fill-rule="nonzero">
            <g id="noun_success_1354985" transform="translate(25.000000, 1.000000)">
                <g id="Group">
                    <g id="Shape">
                        <path d="M227.971272,123.145333 C227.971272,126.827333 224.999508,129.812 221.334908,129.812 C217.670308,129.812 214.698545,126.827333 214.698545,123.145333 L214.698545,119.034 L177.404836,160.737333 C174.99849,163.427333 170.897217,163.7 168.159717,161.352667 L140.11909,137.313333 L97.1877901,178.888667 C95.8996718,180.136 94.2399174,180.756 92.5821536,180.756 C90.8427629,180.756 89.1060263,180.073333 87.8039718,178.716 C85.2602536,176.065333 85.3372356,171.845333 87.9758536,169.29 L135.242026,123.516667 C137.700136,121.136 141.556526,121.017333 144.155326,123.245333 L171.854181,146.992 L206.451536,108.304667 L199.924672,108.304667 C196.260072,108.304667 193.288308,105.32 193.288308,101.638 C193.288308,97.9559999 196.260072,94.9713333 199.924672,94.9713333 L221.334908,94.9713333 C221.376717,94.9713333 221.417863,94.9766666 221.459672,94.9773333 C221.586426,94.9799999 221.711854,94.9873334 221.838608,94.9966667 C221.934172,95.0039999 222.029736,95.0113333 222.123972,95.0226665 C222.241436,95.0366667 222.358236,95.0560001 222.475699,95.076 C222.575245,95.0939999 222.675454,95.1106667 222.773672,95.1326667 C222.883172,95.1573334 222.991345,95.1866666 223.099517,95.2166668 C223.201054,95.2446668 223.30259,95.2726665 223.401472,95.3053334 C223.505663,95.3393334 223.607863,95.3793333 223.710063,95.4186666 C223.809608,95.4573334 223.909817,95.4946668 224.006708,95.5380001 C224.104926,95.5813335 224.201154,95.6306668 224.298045,95.6786666 C224.395599,95.7279999 224.493817,95.7773333 224.588717,95.8313334 C224.678972,95.8819999 224.767236,95.9379999 224.855499,95.994 C224.953054,96.056 225.050608,96.118 225.144845,96.1846665 C225.225145,96.242 225.303454,96.3019998 225.38309,96.3633335 C225.479981,96.4386666 225.575545,96.5153332 225.66779,96.5959999 C225.700972,96.6246666 225.736808,96.6486666 225.76999,96.6786668 C225.810472,96.7153334 225.846308,96.7566665 225.886126,96.7953334 C225.973063,96.8773332 226.058008,96.962 226.140299,97.0486667 C226.213299,97.1253333 226.282981,97.2026666 226.351999,97.2826666 C226.422345,97.3646668 226.491363,97.4486665 226.557726,97.5346668 C226.627408,97.6233333 226.694436,97.7126666 226.758145,97.8040002 C226.817872,97.8879999 226.874281,97.9746666 226.929363,98.062 C226.989754,98.1573333 227.048154,98.2526665 227.103899,98.3506668 C227.155663,98.4426667 227.204772,98.5360001 227.25189,98.6313334 C227.300336,98.7273334 227.348117,98.8233334 227.391254,98.9213333 C227.437045,99.0240001 227.478854,99.1286667 227.518672,99.2333333 C227.555172,99.3279998 227.591008,99.422 227.622863,99.518 C227.659363,99.6286666 227.692545,99.7406667 227.723736,99.8539999 C227.749617,99.9499999 227.774836,100.045333 227.796736,100.142 C227.822617,100.254 227.845181,100.367333 227.86509,100.482 C227.883008,100.586 227.898936,100.689333 227.912208,100.794 C227.926145,100.901333 227.936099,101.009333 227.944726,101.118667 C227.954017,101.234667 227.959326,101.350667 227.961981,101.467333 C227.963972,101.524667 227.971272,101.58 227.971272,101.638 L227.971272,123.145333 Z M251.579472,37.7979999 C226.44889,13.7766667 192.459426,0 158.327281,0 C87.2750536,0 29.4703356,58.0686666 29.4703356,129.444667 C29.4703356,130.224666 29.4789629,131.028667 29.4982084,131.897333 L3.05097188,178.677333 C-1.05959177,185.948667 -1.0144645,194.604667 3.1737446,201.832 C7.36129005,209.059333 14.8311808,213.374 23.1558356,213.374 L30.4000901,213.374 L36.3230446,253.528667 C36.4146263,261.284 39.7221901,268.684667 45.4520263,273.907333 C51.3179084,279.253333 59.2005808,281.840667 67.0746263,281.006667 C67.1615629,280.997333 67.2478356,280.986667 67.3341084,280.974 L96.7524446,276.673333 L96.7524446,333.333333 C96.7524446,337.015333 99.7242084,340 103.388808,340 L234.283117,340 C237.948381,340 240.919481,337.015333 240.919481,333.333333 L240.919481,258.956667 C270.897926,222.015333 291.694299,169.12 291.694299,129.444667 C291.694299,95.0713335 277.448017,62.5233334 251.579472,37.7979999 L251.579472,37.7979999 Z"></path>
                    </g>
                </g>
            </g>
        </g>
    </g>
</svg>