<?xml version="1.0" encoding="UTF-8"?>
<svg width="50px" height="42px" viewBox="0 0 50 42" version="1.1" xmlns="http://www.w3.org/2000/svg" xmlns:xlink="http://www.w3.org/1999/xlink">
    <!-- Generator: Sketch 61 (89581) - https://sketch.com -->
    <title>noun_like_124243</title>
    <desc>Created with Sketch.</desc>
    <g id="Page-1" stroke="none" stroke-width="1" fill="none" fill-rule="evenodd">
        <g id="Artboard" transform="translate(-433.000000, -120.000000)" fill="#C5C5C5" fill-rule="nonzero">
            <g id="noun_like_124243" transform="translate(433.000000, 120.000000)">
                <path d="M25,41.716 C24.62,41.716 24.23,41.665 23.81,41.56 C23.657,41.518 23.545,41.476 23.434,41.429 L23.306,41.382 C23.116,41.317 22.928,41.246 22.75,41.151 C22.533,41.035 0.515,29.143 0.515,15.48 C0.515,6.817 6.541,0.285 14.533,0.285 C18.059,0.285 22.088,2.072 25,4.843 C27.913,2.072 31.941,0.285 35.468,0.285 C43.459,0.285 49.486,6.818 49.486,15.48 C49.486,29.143 27.468,41.035 27.246,41.154 C27.07,41.248 26.884,41.318 26.695,41.383 C26.689,41.385 26.592,41.418 26.587,41.421 C26.457,41.477 26.345,41.519 26.228,41.551 C25.771,41.665 25.381,41.716 25,41.716 Z M14.533,3.284 C8.252,3.284 3.515,8.527 3.515,15.479 C3.515,25.291 18.808,35.65 24.166,38.504 C24.192,38.516 24.232,38.527 24.272,38.541 L24.42,38.592 C24.468,38.609 24.534,38.636 24.6,38.664 C24.818,38.719 25.075,38.738 25.399,38.663 C25.48,38.63 25.539,38.606 25.599,38.585 L25.726,38.541 C25.766,38.527 25.808,38.516 25.847,38.498 C31.192,35.649 46.485,25.291 46.485,15.478 C46.485,8.525 41.749,3.283 35.467,3.283 C32.331,3.283 28.497,5.219 26.143,7.991 C25.858,8.326 25.439,8.52 24.999,8.52 L24.999,8.52 C24.559,8.52 24.141,8.327 23.855,7.991 C21.503,5.22 17.669,3.284 14.533,3.284 Z" id="Shape"></path>
            </g>
        </g>
    </g>
</svg>