<?xml version="1.0" encoding="UTF-8"?>
<svg width="50px" height="42px" viewBox="0 0 50 42" version="1.1" xmlns="http://www.w3.org/2000/svg" xmlns:xlink="http://www.w3.org/1999/xlink">
    <!-- Generator: Sketch 61 (89581) - https://sketch.com -->
    <title>noun_like_124244</title>
    <desc>Created with Sketch.</desc>
    <g id="Page-1" stroke="none" stroke-width="1" fill="none" fill-rule="evenodd">
        <g id="Artboard" transform="translate(-318.000000, -116.000000)" fill="#D74444" fill-rule="nonzero">
            <g id="noun_like_124244" transform="translate(318.000000, 116.000000)">
                <path d="M25,41.716 C24.62,41.716 24.23,41.665 23.81,41.56 C23.657,41.518 23.545,41.476 23.434,41.429 L23.306,41.382 C23.116,41.317 22.928,41.246 22.75,41.151 C22.533,41.035 0.515,29.143 0.515,15.48 C0.515,6.817 6.541,0.285 14.533,0.285 C18.059,0.285 22.088,2.072 25,4.843 C27.913,2.072 31.941,0.285 35.468,0.285 C43.459,0.285 49.486,6.818 49.486,15.48 C49.486,29.143 27.468,41.035 27.246,41.154 C27.07,41.248 26.884,41.318 26.695,41.383 C26.689,41.385 26.592,41.418 26.587,41.421 C26.457,41.477 26.345,41.519 26.228,41.551 C25.771,41.665 25.381,41.716 25,41.716 Z" id="Path"></path>
            </g>
        </g>
    </g>
</svg>