<?xml version="1.0" encoding="UTF-8"?>
<svg width="50px" height="50px" viewBox="0 0 50 50" version="1.1" xmlns="http://www.w3.org/2000/svg" xmlns:xlink="http://www.w3.org/1999/xlink">
    <!-- Generator: Sketch 61 (89581) - https://sketch.com -->
    <title>noun_comment_124237</title>
    <desc>Created with Sketch.</desc>
    <g id="Page-1" stroke="none" stroke-width="1" fill="none" fill-rule="evenodd">
        <g id="Artboard" transform="translate(-154.000000, -133.000000)" fill="#C5C5C5" fill-rule="nonzero">
            <g id="noun_comment_124237" transform="translate(154.000000, 133.000000)">
                <path d="M47.986,49.486 C47.811,49.486 47.635,49.456 47.465,49.393 L37.858,45.837 C33.995,48.227 29.566,49.485 25,49.485 C11.498,49.485 0.514,38.501 0.514,24.998 C0.514,11.496 11.498,0.512 25,0.512 C38.501,0.512 49.486,11.496 49.486,24.998 C49.486,29.564 48.227,33.993 45.838,37.856 L49.394,47.464 C49.597,48.014 49.461,48.631 49.047,49.045 C48.761,49.333 48.377,49.486 47.986,49.486 Z M25,3.513 C13.152,3.513 3.514,13.152 3.514,24.999 C3.514,36.847 13.153,46.486 25,46.486 C29.232,46.486 33.33,45.254 36.85,42.922 C37.249,42.657 37.75,42.599 38.199,42.765 L45.447,45.448 L42.764,38.199 C42.598,37.75 42.657,37.249 42.921,36.85 C45.253,33.329 46.485,29.232 46.485,25 C46.486,13.152 36.848,3.513 25,3.513 Z" id="Shape"></path>
            </g>
        </g>
    </g>
</svg>