<?xml version="1.0" encoding="UTF-8"?>
<svg width="321px" height="333px" viewBox="0 0 321 333" version="1.1" xmlns="http://www.w3.org/2000/svg" xmlns:xlink="http://www.w3.org/1999/xlink">
    <!-- Generator: Sketch 59.1 (86144) - https://sketch.com -->
    <title>noun_talk_2248891</title>
    <desc>Created with Sketch.</desc>
    <g id="Page-1" stroke="none" stroke-width="1" fill="none" fill-rule="evenodd">
        <g id="Artboard" transform="translate(-10.000000, -4.000000)" fill="#C5C5C5" fill-rule="nonzero">
            <g id="noun_talk_2248891" transform="translate(10.000000, 4.000000)">
                <path d="M281.894647,38.3378613 C327.856717,84.2999306 333.04859,156.690486 295.187734,208.597387 L309.312624,264.730324 C311.220647,272.374243 302.244266,277.93274 296.232416,273.024705 L258.899815,242.452971 C255.545006,244.569931 252.083757,246.537087 248.539723,248.346555 C213.138798,318.001225 126.012312,340.787121 61.4391329,300.099711 L24.110474,330.671445 C18.0710289,335.563711 9.11830058,330.01704 11.0263237,322.377064 L25.1512139,266.240185 C-21.8791908,201.769503 -1.05650867,108.83222 71.8268208,71.7322081 C112.36837,-7.94352601 219.142763,-24.4100809 281.894647,38.3378613 Z M223.250532,258.099549 C125.00311,284.602936 36.1578266,193.475121 62.1132486,96.9977457 C10.4862428,135.938763 1.44284393,209.236023 40.4627052,259.432012 C44.9016185,265.152139 34.8529595,294.545156 32.8818613,302.374358 C40.0724277,296.488659 57.8320231,276.817098 66.1106358,283.688347 C116.353931,318.328428 185.902162,307.621422 223.24659,258.099549 L223.250532,258.099549 Z" id="Shape"></path>
            </g>
        </g>
    </g>
</svg>